<?xml version="1.0" encoding="utf-8"?>
<!-- Generator: Adobe Illustrator 28.1.0, SVG Export Plug-In . SVG Version: 6.00 Build 0)  -->
<svg version="1.1" id="Layer_1" xmlns="http://www.w3.org/2000/svg" xmlns:xlink="http://www.w3.org/1999/xlink" x="0px" y="0px"
	 viewBox="0 0 576 175" style="enable-background:new 0 0 576 175;" xml:space="preserve">
<style type="text/css">
	.st0{fill-rule:evenodd;clip-rule:evenodd;fill:#FFFFFF;}
</style>
<g id="logo_x2F_axiom-black">
	<g>
		<path id="Fill-1" class="st0" d="M297.3,149.2l-9.3-1.4c-8.2-1-8.2-2.9-8.2-3.7c0-3.1,5-4.2,9.7-4.2c9.8,0,12.2,3.5,13.1,6.1
			l0.2,0.6l8.5-2.8l-0.2-0.7c-1-2.7-3.9-10.9-21.3-10.9c-12.2,0-18.9,4.4-18.9,12.4c0,6.3,5.2,10.5,14.7,11.8l9.4,1.3
			c3.6,0.5,7.9,1.5,7.9,4.2c0,2.8-4.5,4.8-10.7,4.8c-9.6,0-12.5-3.5-14-6.6l-0.3-0.5l-8.6,2.7l0.2,0.6c0.8,2.8,5,11.7,22.4,11.7
			c12.7,0,19.9-4.9,19.9-13.4C311.8,154.6,307.1,150.7,297.3,149.2"/>
		<path id="Fill-3" class="st0" d="M363.2,150.5H348V141h15.1c5.1,0,7.5,0.7,7.5,4.7C370.7,149.8,368.3,150.5,363.2,150.5
			 M361.5,133.1H339v40.5h9v-15.2h13.5c6.3,0,18.2,0,18.2-12.6C379.7,133.1,367.9,133.1,361.5,133.1"/>
		<path id="Fill-5" class="st0" d="M429.1,156.7h-14.2l7.1-15.2L429.1,156.7z M417.2,133.1l-19.9,40.5h9.6l4.1-9h21.7l4.1,9h9.6
			l-19.6-40.5H417.2z"/>
		<path id="Fill-7" class="st0" d="M503,158.8c-0.7,2.7-4.3,7.8-13,7.8c-8.8,0-14.2-5-14.2-13c0-8.7,5.2-13.5,14.7-13.5
			c8.1,0,11.4,4.6,11.9,6.4l0.1,0.5h9l-0.3-1.1c-3.1-11.3-13.3-13.7-21.3-13.7c-14.6,0-23.4,7.7-23.4,20.6
			c0,13.5,8.7,21.8,22.8,21.8c17.3,0,21.5-9.7,22.5-15.5l0.1-0.8h-9L503,158.8z"/>
		<polygon id="Fill-9" class="st0" points="547.9,165.6 547.9,156.7 571.5,156.7 571.5,148.7 547.9,148.7 547.9,141 575.4,141 
			575.4,133.1 538.9,133.1 538.9,173.6 576,173.6 576,165.6 		"/>
		<path id="Fill-12" class="st0" d="M374.8,23c-14.9,0-27,12.1-27,27c0,14.9,12.1,27,27,27c14.9,0,27-12.1,27-27
			C401.8,35.1,389.7,23,374.8,23 M374.8,100c-27.6,0-50-22.4-50-50c0-27.6,22.4-50,50-50c27.6,0,50,22.4,50,50
			C424.8,77.6,402.4,100,374.8,100"/>
		<polygon id="Fill-15" class="st0" points="272.5,96.9 296,96.9 296,3.1 272.5,3.1 		"/>
		<polygon id="Fill-17" class="st0" points="240.2,2.8 194.1,35.6 148,2.8 148,31.6 240.2,97.2 240.2,68.4 214.3,50 240.2,31.6 		
			"/>
		<polygon id="Fill-18" class="st0" points="240.2,2.8 194.1,35.6 148,2.8 148,31.6 240.2,97.2 240.2,68.4 214.3,50 240.2,31.6 		
			"/>
		<polygon id="Fill-19" class="st0" points="91.7,3.1 0,68.4 0,97.2 92.1,31.6 92.1,96.9 115.6,96.9 115.6,3.1 		"/>
		<polygon id="Fill-20" class="st0" points="173.8,50 148,68.4 148,97.2 173.8,78.8 		"/>
		<polygon id="Fill-21" class="st0" points="552.6,96.9 576,96.9 576,43.7 552.6,60.4 		"/>
		<polygon id="Fill-22" class="st0" points="576,3.1 552.1,3.1 514.6,29.8 477,3.1 453.2,3.1 453.2,3.1 453.2,96.9 476.6,96.9 
			476.6,31.6 514.6,58.6 576,14.9 		"/>
	</g>
</g>
</svg>
