<svg width="97" height="53" viewBox="0 0 97 53" fill="none" xmlns="http://www.w3.org/2000/svg">
<path d="M15.095 20.7074C12.1755 19.8757 7.50791 18.7688 2.39728 20.1387C1.45042 20.3956 0.800975 20.8175 0.351822 21.6187C0.127246 22.0162 -0.0791206 22.4504 0.0301327 22.8907C0.127247 23.2638 0.661373 23.3983 1.08625 23.4656C1.49898 23.5329 2.42763 23.5818 2.67649 23.276C2.81002 23.117 2.81002 22.6767 2.13022 22.5299C1.88137 22.4749 1.1955 22.4504 1.14087 22.3342C1.14087 22.3342 1.16515 22.2547 1.54147 22.1385C1.70535 22.0896 2.92535 21.582 6.2515 21.6921C10.2089 21.8205 13.6686 22.7562 17.3225 24.2056C20.8975 25.6244 24.9217 28.193 27.2767 31.2447C28.1689 32.4005 29.2736 34.3025 29.4193 35.8986C29.7713 39.7821 26.0081 43.06 18.3604 42.7971C17.0554 42.7543 15.4652 42.4424 15.4652 42.4424L15.3074 34.9446C15.3074 34.9446 18.5425 34.9202 22.1175 36.1066C22.421 36.2044 22.7305 36.4062 22.7548 36.7059C22.773 36.9322 22.597 37.134 22.3967 37.3114C22.0265 37.6355 21.5166 37.7823 21.4013 37.9168C21.3224 38.0147 21.3224 38.1675 21.4256 38.2532C21.6926 38.4611 22.3542 38.6079 22.7973 38.5651C23.7017 38.4856 24.2965 37.9596 24.7517 37.2685C25.2373 36.5347 25.5104 34.6694 22.943 33.483C19.6229 31.948 15.2831 32.2354 15.2831 32.2354C15.2831 32.2354 15.2588 31.2202 15.2163 30.5414C15.1435 29.4283 14.834 27.2512 13.8325 26.6213C13.6504 26.5051 13.4258 26.4928 13.2983 26.6641C13.1041 26.9209 12.9099 27.8994 12.8674 28.1502C12.4911 30.4191 12.5093 32.4556 12.4911 32.4861C12.4789 32.4984 12.4668 32.5106 12.4547 32.5228C12.4122 32.5473 10.0147 32.8347 7.69607 33.8499C6.77349 34.2535 5.45031 34.9813 5.04971 35.917C4.5338 37.1279 5.44424 38.4489 6.97986 39.9166C8.27876 41.1581 10.1968 42.4668 11.6171 43.1395C11.9812 43.3108 12.4061 43.5248 12.4061 43.5248C12.4061 43.5248 12.4971 44.3933 12.57 44.8947C12.837 46.6988 14.2027 46.4359 14.579 46.3564C15.1921 46.2279 15.3074 45.8182 15.3924 45.3473C15.4409 45.0904 15.4166 44.7113 15.4166 44.7113C15.4166 44.7113 16.3392 44.9253 16.9644 45.0415C18.7731 45.3779 20.7336 45.4329 22.4331 45.2005C29.2311 44.2648 30.9488 41.0358 31.489 40.1735C32.4298 38.6751 34.4267 34.4982 28.4117 28.303C27.04 26.8842 23.0644 22.9886 15.0889 20.7136L15.095 20.7074ZM6.1119 37.5988C5.86305 37.3419 5.67489 37.0667 5.72952 36.7304C5.78414 36.4062 6.41538 36.1188 6.731 36.0271C9.79616 35.1158 12.4 35.0669 12.4 35.0669C12.4 35.0669 12.3758 36.1739 12.3697 37.2991C12.3575 39.4212 12.4182 41.5801 12.4182 41.5801C12.4182 41.5801 8.95856 40.5649 6.1119 37.5988Z" fill="white"/>
<path d="M37.2747 29.7955C38.7132 29.2267 39.8239 28.4133 40.9468 27.2514C41.6023 26.5786 42.1789 25.4717 41.9665 24.4626C41.8633 23.9611 41.6327 23.6187 41.2199 23.2579C41.0136 23.0805 40.5401 22.8236 40.1517 22.7503C40.0424 22.7258 39.921 22.7197 39.8725 22.6891C39.8179 22.6524 39.7754 22.579 39.7207 22.5117C39.4658 22.1876 38.9681 21.8818 38.61 21.7595C37.5053 21.3742 36.0365 21.6678 35.0289 22.0898C33.9667 22.5423 32.9895 23.2089 32.243 24.0101C30.2885 26.12 31.1504 27.7895 31.3204 28.1014C31.466 28.3644 31.7453 28.6518 31.7999 28.927C31.8363 29.0922 31.7999 29.3062 31.812 29.5019C31.8242 29.9483 32.0184 30.4009 32.3461 30.7006C32.5829 30.9085 32.9228 30.9758 33.2687 30.4498C33.3841 30.2725 33.5722 29.9178 33.5722 29.9178C33.5722 29.9178 33.9728 30.1502 34.9318 30.2174C35.648 30.2664 36.6313 30.0523 37.2625 29.8016L37.2747 29.7955ZM32.6678 27.2452C32.6678 27.2452 32.6011 27.1046 32.5586 27.0006C32.2612 26.2606 32.9167 25.4228 33.5115 24.9091C34.6708 23.9122 35.6602 23.9367 35.6602 23.9367C35.6602 23.9367 35.4234 24.1263 35.2292 24.3036C33.5358 25.7958 32.6678 27.2514 32.6678 27.2514V27.2452ZM35.211 27.2208C35.9212 26.2973 37.2383 25.1537 38.1548 24.6033C38.871 24.1691 39.4901 24.0529 39.9575 24.2608C40.2306 24.3831 40.4552 24.6339 40.4916 24.9702C40.613 26.0099 39.4233 26.8783 38.6282 27.3492C36.8195 28.4133 34.6769 28.1748 34.6223 28.077C34.6162 28.0525 35.0532 27.4471 35.2171 27.2269L35.211 27.2208Z" fill="white"/>
<path d="M78.3164 32.8721C76.0099 31.2575 72.2953 36.3702 70.6565 38.9021C70.4137 37.6117 71.2816 35.9788 71.2816 35.9788C71.2816 35.9788 72.6716 33.557 72.8658 33.0616C73.054 32.5663 73.1632 31.5511 72.9265 31.4471C72.708 31.3493 72.3378 31.6734 72.3378 31.6734C69.218 34.4927 68.781 37.6239 68.781 37.6239C68.4835 39.3118 68.8295 40.4921 69.3394 41.3177C67.6035 45.0421 66.7598 48.2834 66.9843 50.2037C67.1968 51.6654 68.2347 52.7234 68.8659 52.9435C69.5032 53.2126 69.6186 52.442 69.6186 52.442C70.1345 48.473 71.0328 45.8188 72.1071 43.1952C75.3604 43.9474 77.8065 40.7612 78.6684 39.2384C79.1782 38.3211 79.4514 37.1041 79.4514 35.9543C79.4514 34.6456 79.0933 33.4347 78.3224 32.8721H78.3164ZM76.198 39.2017C75.8278 39.5564 74.5896 40.2597 73.3089 40.4065C74.5289 38.0214 76.0463 36.2662 76.8839 35.3305C77.8611 34.2236 77.9886 35.2266 77.9886 35.2266C78.2192 37.1836 76.805 38.6574 76.192 39.2017H76.198Z" fill="white"/>
<path d="M67.6386 41.0843C67.7964 40.4849 67.2562 39.8367 66.7707 39.7144C66.3154 39.6226 62.8254 40.277 62.4127 40.3932C61.9635 40.5155 62.1638 40.0874 62.1638 40.0874L62.704 38.2527C62.704 38.2527 66.0362 38.1243 66.5157 38.0448C66.9649 37.9653 66.9892 37.6473 66.9892 37.6473C66.9892 37.6473 67.0499 37.1213 67.0317 36.6321C66.9831 36.1062 66.5643 36.1551 66.5643 36.1551C65.2775 36.0205 63.5052 36.1734 63.5052 36.1734L63.9544 34.7607C63.9544 34.7607 67.499 34.5895 68.8404 34.2715C69.5323 34.1063 69.1257 33.4214 69.1257 33.4214C68.2881 31.7274 67.3169 31.8252 67.3169 31.8252C64.531 31.7335 60.4825 32.4735 60.0394 32.6936C59.6267 32.8832 59.6692 33.1951 60.2094 33.8801C60.786 34.6017 61.7571 34.5344 61.7571 34.5344L60.9013 36.3141C60.2033 36.363 59.9666 36.5832 59.9666 36.5832C59.566 37.0174 60.1183 38.2894 60.1183 38.2894C60.1183 38.2894 58.9105 41.0231 59.7845 42.4664C60.7253 43.9831 61.8421 43.9097 61.8421 43.9097C63.9604 44.0626 67.4444 41.8304 67.6326 41.0904L67.6386 41.0843Z" fill="white"/>
<path d="M55.4627 30.2234C55.4627 30.2234 54.9711 29.991 54.8436 30.4864C54.7161 30.9756 54.9043 31.5016 54.9043 31.5016C56.1304 35.6969 56.4096 38.1798 56.4096 38.1798C56.4096 38.1798 56.4642 38.9076 56.3246 38.9504C56.2275 39.0238 56.1182 38.9198 56.1182 38.9198C55.9786 38.9198 54.6312 36.6509 54.6312 36.6509L54.3702 36.2045C52.8892 33.7949 51.9909 32.9754 51.9909 32.9754C51.7784 32.7797 51.2443 32.2293 50.5706 32.9815C49.8968 33.7399 49.3749 36.1678 49.1624 38.4489C48.9803 40.73 49.1199 42.0266 49.4477 42.5708C49.8119 43.1274 50.5099 43.3108 51.0865 42.8399C51.6995 42.369 51.5842 39.3601 51.6813 37.819C51.7724 36.2718 51.9241 36.547 51.9241 36.547C52.0576 36.5103 52.7556 37.9291 52.7556 37.9291C52.7556 37.9291 54.5947 41.7269 55.754 42.2895C56.9255 42.8522 57.8663 41.947 58.2244 41.1031C58.5886 40.253 59.2016 37.4337 58.2851 34.3086C57.3625 31.1836 55.4566 30.2234 55.4566 30.2234H55.4627Z" fill="white"/>
<path d="M36.3263 38.2663C36.2778 37.2266 36.1564 34.5724 35.8711 33.3738C35.7436 32.86 35.5373 32.3891 35.0335 32.1934C34.9728 32.169 34.906 32.1506 34.8635 32.1445C34.5479 32.0834 34.3658 32.5176 34.2809 32.7377C34.032 33.3799 33.8499 34.921 33.8014 35.398C33.6557 36.8535 33.5343 40.2966 33.7832 42.0518C33.8863 42.7857 34.1291 43.2627 34.8635 43.4217C35.161 43.4829 35.7072 43.4706 35.95 43.3178C36.1564 43.1893 36.3081 42.9325 36.3567 42.7123C36.4902 42.1007 36.4417 41.2323 36.4113 40.578C36.381 39.8074 36.3567 39.0429 36.3263 38.2601V38.2663Z" fill="white"/>
<path d="M48.2421 32.4617C46.6518 31.6117 44.0298 31.6056 42.4092 31.8135C40.7339 32.0214 38.4943 32.5474 37.5352 33.9356C37.1711 34.4677 36.9586 35.2749 37.1225 35.9415C37.2196 36.3085 37.4806 36.5898 37.863 36.7916C38.5428 37.1463 40.8068 37.2258 41.8143 37.3359C42.7673 37.4399 44.5153 37.6111 45.4804 38.0147C45.4804 38.0147 46.3969 38.3327 46.3908 38.8587C46.3908 39.1155 46.1966 39.3235 46.0024 39.4641C44.5699 40.4854 42.6034 40.779 40.8493 40.7484C40.2544 40.7423 39.7689 40.6444 39.1619 40.3876C38.907 40.2714 38.5732 40.0696 38.6156 39.7149C38.6885 39.1522 39.3258 39.0116 39.8356 39.0605C40.1209 39.085 40.4912 39.2073 40.7704 39.3174C41.8932 39.7638 42.4031 40.143 43.3924 39.9901C43.7627 39.935 45.0373 39.6537 45.2133 39.1217C45.2558 38.9932 45.1951 38.8526 45.098 38.7547C44.9645 38.6141 44.1936 38.3144 43.9873 38.241C43.2346 37.9719 41.8083 37.7273 41.0131 37.6967C39.9752 37.66 38.5428 37.8741 37.948 38.7425C37.4139 39.5253 37.2925 41.1031 39.9449 42.4302C41.177 43.0479 42.6702 43.3231 44.048 43.1702C44.837 43.0785 47.101 42.7238 47.9629 40.9074C48.4242 39.9289 48.3817 38.6263 47.884 37.6967C47.5562 37.0852 47.1617 36.2718 44.1997 35.8987C43.7263 35.8376 40.2423 35.4339 39.9267 35.385C39.7507 35.3544 38.9313 35.2566 39.2226 34.9447C39.3015 34.853 39.5504 34.7857 39.696 34.749C41.523 34.2475 43.8416 34.3025 45.7657 34.1925C46.1966 34.168 47.1677 34.1068 47.6412 33.954C48.0903 33.8133 48.4606 33.4953 48.5638 32.9938C48.6184 32.7308 48.4909 32.6024 48.2421 32.474V32.4617Z" fill="white"/>
<path d="M95.7239 34.7307H90.2552C90.1945 32.8288 90.0063 30.9452 89.6847 29.0983C89.63 28.7802 89.3569 28.5479 89.0352 28.5479H87.5603C87.275 28.5479 87.0565 28.8108 87.1051 29.0983C87.451 30.9452 87.6513 32.8227 87.7181 34.7307H82.1583C81.9034 34.7307 81.697 34.9387 81.697 35.1955V36.8834C81.697 37.1403 81.9034 37.3482 82.1583 37.3482H87.7181C87.6513 39.2563 87.451 41.1338 87.1051 42.9807C87.0504 43.2682 87.2689 43.5311 87.5603 43.5311H89.0352C89.3569 43.5311 89.63 43.2987 89.6847 42.9807C90.0063 41.1338 90.1945 39.2502 90.2552 37.3421H95.7239C95.9789 37.3421 96.1852 37.1342 96.1852 36.8773V35.1894C96.1852 34.9326 95.9789 34.7246 95.7239 34.7246V34.7307Z" fill="white"/>
<path d="M20.4052 14.28C20.6237 14.4329 20.9272 14.3167 21.1457 14.0843C23.0212 12.0478 25.0727 10.2743 27.4095 8.66589C42.7475 -1.88968 65.2658 -0.354656 78.4369 13.0202C82.7645 17.3929 85.1438 22.0836 86.3942 25.7713C86.4852 26.0404 86.7341 26.2238 87.0193 26.2238H88.5307C88.8463 26.2238 89.0709 25.9119 88.9677 25.6123C87.3289 20.7198 84.1545 15.3503 79.5416 10.9837C65.7149 -2.14042 43.3119 -3.60205 27.7009 7.13087C25.1455 8.8677 22.6084 11.0938 20.3809 13.6379C20.1624 13.8886 20.2352 14.1638 20.4052 14.28Z" fill="white"/>
</svg>
