<svg width="63" height="23" viewBox="0 0 63 23" fill="none" xmlns="http://www.w3.org/2000/svg">
<path d="M38.5163 22.0877H43.5113V0H38.5036V22.0877H38.5163ZM29.7144 15.7898C29.737 16.5313 29.1738 17.159 28.4369 17.2136H25.4732C24.7141 17.1857 24.1174 16.5523 24.1318 15.7898V6.88799H19.1624V16.2259C19.1624 20.0739 21.4618 22.0621 24.8344 22.0621H29.7272C32.8443 22.0621 34.735 19.6635 34.735 16.2259V6.88799H29.6889C29.6889 6.88799 29.7144 15.5076 29.7144 15.7898ZM57.8192 6.88799V15.7898C57.8353 16.5288 57.2755 17.1527 56.5418 17.2136H53.6546C52.9209 17.1527 52.3611 16.5288 52.3771 15.7898V6.88799H47.2672V16.2259C47.2672 20.0739 49.5667 22.0621 52.952 22.0621H57.832C60.9491 22.0621 62.8398 19.6635 62.8398 16.2259V6.88799H57.8192ZM9.84946 6.88799H6.69405C6.11575 6.85733 5.53831 6.96274 5.00776 7.19584V0H0V22.0621H4.98221V13.186C4.96621 12.4469 5.52596 11.823 6.25971 11.7622H9.22348C9.95723 11.823 10.517 12.4469 10.501 13.186V22.0877H15.5087V12.4677C15.5087 8.44003 12.9538 6.88799 9.83668 6.88799H9.84946Z" fill="#1CE682"/>
</svg>
